<svg width="527" height="345" viewBox="0 0 527 345" fill="none" xmlns="http://www.w3.org/2000/svg">
<path d="M553.268 312.391C608.524 287.79 600.767 230.391 600.767 230.391C600.767 230.391 687.267 199.891 682.767 130.391C675.943 96.7848 660.267 53.0699 575.234 36.8909C567.268 -15.1093 545.87 -41.633 518.768 -51.1093C447.268 -76.1093 397.046 -42.172 397.046 -42.172C397.046 -42.172 362.873 -113.044 292.765 -103.609C235.555 -95.9091 213.166 -28.7437 213.166 -28.7437C213.166 -28.7437 160.964 -92.1254 85.7652 -44.1075C44.2676 -17.6094 60.0019 53.0699 60.0019 53.0699C60.0019 53.0699 0.640297 78.1683 0.518625 121.263C0.32721 189.067 59.595 197.213 59.595 197.213C59.595 197.213 60.1804 250.351 117.598 264.058C168.163 276.129 215.964 244.705 215.964 244.705C215.964 244.705 229.305 335.339 312.278 343.778C417.008 354.429 433.506 282.97 433.506 282.97C433.506 282.97 482.768 343.778 553.268 312.391Z" fill="white"/>
</svg>
